<svg xmlns="http://www.w3.org/2000/svg" xmlns:xlink="http://www.w3.org/1999/xlink" width="537" zoomAndPan="magnify" viewBox="0 0 402.75 80.999996" height="108" preserveAspectRatio="xMidYMid meet" version="1.0"><defs><g/><clipPath id="7f68f2ea9c"><path d="M 9.894531 43.378906 L 392.132812 43.378906 L 392.132812 46.785156 L 9.894531 46.785156 Z M 9.894531 43.378906 " clip-rule="nonzero"/></clipPath></defs><g clip-path="url(#7f68f2ea9c)"><path fill="#d9d9d9" d="M 390.425781 46.785156 L 11.601562 46.785156 C 10.65625 46.785156 9.894531 46.023438 9.894531 45.085938 C 9.894531 44.140625 10.65625 43.378906 11.601562 43.378906 L 390.425781 43.378906 C 391.363281 43.378906 392.128906 44.140625 392.128906 45.085938 C 392.128906 46.023438 391.363281 46.785156 390.425781 46.785156 " fill-opacity="1" fill-rule="nonzero"/></g><g fill="#d9d9d9" fill-opacity="1"><g transform="translate(9.620438, 33.348137)"><g><path d="M 9.5625 -14.609375 L 9.5625 0 L 5.90625 0 L 5.90625 -14.609375 L 0.28125 -14.609375 L 0.28125 -17.421875 L 15.203125 -17.421875 L 15.203125 -14.609375 Z M 9.5625 -14.609375 "/></g></g></g><g fill="#d9d9d9" fill-opacity="1"><g transform="translate(26.866807, 33.348137)"><g><path d="M 12.9375 0 L 12.9375 -7.46875 L 5.34375 -7.46875 L 5.34375 0 L 1.6875 0 L 1.6875 -17.421875 L 5.34375 -17.421875 L 5.34375 -10.484375 L 12.9375 -10.484375 L 12.9375 -17.421875 L 16.578125 -17.421875 L 16.578125 0 Z M 12.9375 0 "/></g></g></g><g fill="#d9d9d9" fill-opacity="1"><g transform="translate(46.933228, 33.348137)"><g><path d="M 1.6875 0 L 1.6875 -17.421875 L 15.390625 -17.421875 L 15.390625 -14.609375 L 5.34375 -14.609375 L 5.34375 -10.234375 L 14.640625 -10.234375 L 14.640625 -7.40625 L 5.34375 -7.40625 L 5.34375 -2.8125 L 15.90625 -2.8125 L 15.90625 0 Z M 1.6875 0 "/></g></g></g><g fill="#d9d9d9" fill-opacity="1"><g transform="translate(65.601992, 33.348137)"><g><path d="M 13.671875 0 L 9.625 -6.609375 L 5.34375 -6.609375 L 5.34375 0 L 1.6875 0 L 1.6875 -17.421875 L 10.40625 -17.421875 C 12.476562 -17.421875 14.078125 -16.972656 15.203125 -16.078125 C 16.335938 -15.179688 16.90625 -13.898438 16.90625 -12.234375 C 16.90625 -11.015625 16.554688 -9.957031 15.859375 -9.0625 C 15.171875 -8.175781 14.238281 -7.597656 13.0625 -7.328125 L 17.765625 0 Z M 13.234375 -12.078125 C 13.234375 -13.753906 12.160156 -14.59375 10.015625 -14.59375 L 5.34375 -14.59375 L 5.34375 -9.453125 L 10.109375 -9.453125 C 11.140625 -9.453125 11.914062 -9.679688 12.4375 -10.140625 C 12.96875 -10.597656 13.234375 -11.242188 13.234375 -12.078125 Z M 13.234375 -12.078125 "/></g></g></g><g fill="#d9d9d9" fill-opacity="1"><g transform="translate(85.668413, 33.348137)"><g><path d="M 1.6875 0 L 1.6875 -17.421875 L 15.390625 -17.421875 L 15.390625 -14.609375 L 5.34375 -14.609375 L 5.34375 -10.234375 L 14.640625 -10.234375 L 14.640625 -7.40625 L 5.34375 -7.40625 L 5.34375 -2.8125 L 15.90625 -2.8125 L 15.90625 0 Z M 1.6875 0 "/></g></g></g><g fill="#d9d9d9" fill-opacity="1"><g transform="translate(104.337176, 33.348137)"><g><path d="M 15.90625 -5.015625 C 15.90625 -3.316406 15.269531 -2.015625 14 -1.109375 C 12.738281 -0.203125 10.882812 0.25 8.4375 0.25 C 6.195312 0.25 4.441406 -0.144531 3.171875 -0.9375 C 1.910156 -1.726562 1.097656 -2.925781 0.734375 -4.53125 L 4.25 -5.125 C 4.488281 -4.195312 4.953125 -3.523438 5.640625 -3.109375 C 6.335938 -2.691406 7.300781 -2.484375 8.53125 -2.484375 C 11.082031 -2.484375 12.359375 -3.257812 12.359375 -4.8125 C 12.359375 -5.300781 12.210938 -5.707031 11.921875 -6.03125 C 11.628906 -6.351562 11.210938 -6.617188 10.671875 -6.828125 C 10.140625 -7.046875 9.125 -7.3125 7.625 -7.625 C 6.320312 -7.925781 5.410156 -8.164062 4.890625 -8.34375 C 4.378906 -8.53125 3.914062 -8.75 3.5 -9 C 3.09375 -9.257812 2.742188 -9.566406 2.453125 -9.921875 C 2.171875 -10.273438 1.945312 -10.691406 1.78125 -11.171875 C 1.625 -11.648438 1.546875 -12.195312 1.546875 -12.8125 C 1.546875 -14.382812 2.132812 -15.585938 3.3125 -16.421875 C 4.5 -17.265625 6.222656 -17.6875 8.484375 -17.6875 C 10.640625 -17.6875 12.257812 -17.347656 13.34375 -16.671875 C 14.4375 -15.992188 15.140625 -14.875 15.453125 -13.3125 L 11.90625 -12.84375 C 11.726562 -13.59375 11.359375 -14.15625 10.796875 -14.53125 C 10.242188 -14.90625 9.445312 -15.09375 8.40625 -15.09375 C 6.195312 -15.09375 5.09375 -14.398438 5.09375 -13.015625 C 5.09375 -12.566406 5.207031 -12.195312 5.4375 -11.90625 C 5.675781 -11.625 6.023438 -11.378906 6.484375 -11.171875 C 6.953125 -10.972656 7.890625 -10.71875 9.296875 -10.40625 C 10.972656 -10.050781 12.171875 -9.722656 12.890625 -9.421875 C 13.609375 -9.128906 14.175781 -8.78125 14.59375 -8.375 C 15.019531 -7.976562 15.34375 -7.5 15.5625 -6.9375 C 15.789062 -6.382812 15.90625 -5.742188 15.90625 -5.015625 Z M 15.90625 -5.015625 "/></g></g></g><g fill="#d9d9d9" fill-opacity="1"><g transform="translate(123.00594, 33.348137)"><g><path d="M 14.015625 0 L 12.46875 -4.453125 L 5.828125 -4.453125 L 4.28125 0 L 0.625 0 L 6.984375 -17.421875 L 11.296875 -17.421875 L 17.625 0 Z M 9.140625 -14.734375 L 9.0625 -14.46875 C 8.976562 -14.175781 8.878906 -13.835938 8.765625 -13.453125 C 8.648438 -13.078125 7.941406 -10.992188 6.640625 -7.203125 L 11.65625 -7.203125 L 9.9375 -12.203125 Z M 9.140625 -14.734375 "/></g></g></g><g fill="#d9d9d9" fill-opacity="1"><g transform="translate(143.072361, 33.348137)"><g/></g></g><g fill="#d9d9d9" fill-opacity="1"><g transform="translate(151.883312, 33.348137)"><g><path d="M 16.03125 -11.90625 C 16.03125 -10.789062 15.773438 -9.789062 15.265625 -8.90625 C 14.753906 -8.019531 14.019531 -7.335938 13.0625 -6.859375 C 12.113281 -6.378906 10.984375 -6.140625 9.671875 -6.140625 L 5.34375 -6.140625 L 5.34375 0 L 1.6875 0 L 1.6875 -17.421875 L 9.515625 -17.421875 C 11.609375 -17.421875 13.21875 -16.941406 14.34375 -15.984375 C 15.46875 -15.023438 16.03125 -13.664062 16.03125 -11.90625 Z M 12.359375 -11.84375 C 12.359375 -13.675781 11.273438 -14.59375 9.109375 -14.59375 L 5.34375 -14.59375 L 5.34375 -8.9375 L 9.21875 -8.9375 C 10.21875 -8.9375 10.988281 -9.1875 11.53125 -9.6875 C 12.082031 -10.1875 12.359375 -10.90625 12.359375 -11.84375 Z M 12.359375 -11.84375 "/></g></g></g><g fill="#d9d9d9" fill-opacity="1"><g transform="translate(170.552075, 33.348137)"><g><path d="M 14.015625 0 L 12.46875 -4.453125 L 5.828125 -4.453125 L 4.28125 0 L 0.625 0 L 6.984375 -17.421875 L 11.296875 -17.421875 L 17.625 0 Z M 9.140625 -14.734375 L 9.0625 -14.46875 C 8.976562 -14.175781 8.878906 -13.835938 8.765625 -13.453125 C 8.648438 -13.078125 7.941406 -10.992188 6.640625 -7.203125 L 11.65625 -7.203125 L 9.9375 -12.203125 Z M 9.140625 -14.734375 "/></g></g></g><g fill="#d9d9d9" fill-opacity="1"><g transform="translate(190.618496, 33.348137)"><g><path d="M 9.828125 -2.625 C 12.035156 -2.625 13.566406 -3.726562 14.421875 -5.9375 L 17.59375 -4.734375 C 16.914062 -3.054688 15.914062 -1.804688 14.59375 -0.984375 C 13.269531 -0.160156 11.679688 0.25 9.828125 0.25 C 7.023438 0.25 4.859375 -0.539062 3.328125 -2.125 C 1.796875 -3.71875 1.03125 -5.941406 1.03125 -8.796875 C 1.03125 -11.648438 1.769531 -13.84375 3.25 -15.375 C 4.726562 -16.914062 6.867188 -17.6875 9.671875 -17.6875 C 11.710938 -17.6875 13.375 -17.273438 14.65625 -16.453125 C 15.945312 -15.628906 16.851562 -14.425781 17.375 -12.84375 L 14.15625 -11.953125 C 13.882812 -12.828125 13.347656 -13.519531 12.546875 -14.03125 C 11.753906 -14.550781 10.820312 -14.8125 9.75 -14.8125 C 8.09375 -14.8125 6.835938 -14.300781 5.984375 -13.28125 C 5.140625 -12.257812 4.71875 -10.765625 4.71875 -8.796875 C 4.71875 -6.785156 5.15625 -5.253906 6.03125 -4.203125 C 6.90625 -3.148438 8.171875 -2.625 9.828125 -2.625 Z M 9.828125 -2.625 "/></g></g></g><g fill="#d9d9d9" fill-opacity="1"><g transform="translate(210.684917, 33.348137)"><g><path d="M 12.9375 0 L 12.9375 -7.46875 L 5.34375 -7.46875 L 5.34375 0 L 1.6875 0 L 1.6875 -17.421875 L 5.34375 -17.421875 L 5.34375 -10.484375 L 12.9375 -10.484375 L 12.9375 -17.421875 L 16.578125 -17.421875 L 16.578125 0 Z M 12.9375 0 "/></g></g></g><g fill="#d9d9d9" fill-opacity="1"><g transform="translate(230.751338, 33.348137)"><g><path d="M 1.6875 0 L 1.6875 -17.421875 L 15.390625 -17.421875 L 15.390625 -14.609375 L 5.34375 -14.609375 L 5.34375 -10.234375 L 14.640625 -10.234375 L 14.640625 -7.40625 L 5.34375 -7.40625 L 5.34375 -2.8125 L 15.90625 -2.8125 L 15.90625 0 Z M 1.6875 0 "/></g></g></g><g fill="#d9d9d9" fill-opacity="1"><g transform="translate(249.420102, 33.348137)"><g><path d="M 9.828125 -2.625 C 12.035156 -2.625 13.566406 -3.726562 14.421875 -5.9375 L 17.59375 -4.734375 C 16.914062 -3.054688 15.914062 -1.804688 14.59375 -0.984375 C 13.269531 -0.160156 11.679688 0.25 9.828125 0.25 C 7.023438 0.25 4.859375 -0.539062 3.328125 -2.125 C 1.796875 -3.71875 1.03125 -5.941406 1.03125 -8.796875 C 1.03125 -11.648438 1.769531 -13.84375 3.25 -15.375 C 4.726562 -16.914062 6.867188 -17.6875 9.671875 -17.6875 C 11.710938 -17.6875 13.375 -17.273438 14.65625 -16.453125 C 15.945312 -15.628906 16.851562 -14.425781 17.375 -12.84375 L 14.15625 -11.953125 C 13.882812 -12.828125 13.347656 -13.519531 12.546875 -14.03125 C 11.753906 -14.550781 10.820312 -14.8125 9.75 -14.8125 C 8.09375 -14.8125 6.835938 -14.300781 5.984375 -13.28125 C 5.140625 -12.257812 4.71875 -10.765625 4.71875 -8.796875 C 4.71875 -6.785156 5.15625 -5.253906 6.03125 -4.203125 C 6.90625 -3.148438 8.171875 -2.625 9.828125 -2.625 Z M 9.828125 -2.625 "/></g></g></g><g fill="#d9d9d9" fill-opacity="1"><g transform="translate(269.486523, 33.348137)"><g><path d="M 18.640625 -8.796875 C 18.640625 -6.984375 18.28125 -5.382812 17.5625 -4 C 16.84375 -2.625 15.816406 -1.570312 14.484375 -0.84375 C 13.148438 -0.113281 11.59375 0.25 9.8125 0.25 C 7.070312 0.25 4.921875 -0.554688 3.359375 -2.171875 C 1.804688 -3.785156 1.03125 -5.992188 1.03125 -8.796875 C 1.03125 -11.585938 1.804688 -13.765625 3.359375 -15.328125 C 4.910156 -16.898438 7.066406 -17.6875 9.828125 -17.6875 C 12.585938 -17.6875 14.742188 -16.894531 16.296875 -15.3125 C 17.859375 -13.726562 18.640625 -11.554688 18.640625 -8.796875 Z M 14.921875 -8.796875 C 14.921875 -10.671875 14.472656 -12.140625 13.578125 -13.203125 C 12.691406 -14.273438 11.441406 -14.8125 9.828125 -14.8125 C 8.203125 -14.8125 6.941406 -14.28125 6.046875 -13.21875 C 5.160156 -12.164062 4.71875 -10.691406 4.71875 -8.796875 C 4.71875 -6.878906 5.171875 -5.367188 6.078125 -4.265625 C 6.984375 -3.171875 8.226562 -2.625 9.8125 -2.625 C 11.4375 -2.625 12.691406 -3.160156 13.578125 -4.234375 C 14.472656 -5.304688 14.921875 -6.828125 14.921875 -8.796875 Z M 14.921875 -8.796875 "/></g></g></g><g fill="#d9d9d9" fill-opacity="1"><g transform="translate(290.96297, 33.348137)"><g><path d="M 5.34375 -0.8125 C 5.34375 0.175781 5.238281 1.046875 5.03125 1.796875 C 4.820312 2.554688 4.476562 3.265625 4 3.921875 L 1.71875 3.921875 C 2.207031 3.335938 2.601562 2.691406 2.90625 1.984375 C 3.207031 1.285156 3.359375 0.625 3.359375 0 L 1.765625 0 L 1.765625 -3.765625 L 5.34375 -3.765625 Z M 5.34375 -0.8125 "/></g></g></g><g fill="#d9d9d9" fill-opacity="1"><g transform="translate(299.773921, 33.348137)"><g/></g></g><g fill="#d9d9d9" fill-opacity="1"><g transform="translate(308.584872, 33.348137)"><g><path d="M 9.828125 -2.625 C 12.035156 -2.625 13.566406 -3.726562 14.421875 -5.9375 L 17.59375 -4.734375 C 16.914062 -3.054688 15.914062 -1.804688 14.59375 -0.984375 C 13.269531 -0.160156 11.679688 0.25 9.828125 0.25 C 7.023438 0.25 4.859375 -0.539062 3.328125 -2.125 C 1.796875 -3.71875 1.03125 -5.941406 1.03125 -8.796875 C 1.03125 -11.648438 1.769531 -13.84375 3.25 -15.375 C 4.726562 -16.914062 6.867188 -17.6875 9.671875 -17.6875 C 11.710938 -17.6875 13.375 -17.273438 14.65625 -16.453125 C 15.945312 -15.628906 16.851562 -14.425781 17.375 -12.84375 L 14.15625 -11.953125 C 13.882812 -12.828125 13.347656 -13.519531 12.546875 -14.03125 C 11.753906 -14.550781 10.820312 -14.8125 9.75 -14.8125 C 8.09375 -14.8125 6.835938 -14.300781 5.984375 -13.28125 C 5.140625 -12.257812 4.71875 -10.765625 4.71875 -8.796875 C 4.71875 -6.785156 5.15625 -5.253906 6.03125 -4.203125 C 6.90625 -3.148438 8.171875 -2.625 9.828125 -2.625 Z M 9.828125 -2.625 "/></g></g></g><g fill="#d9d9d9" fill-opacity="1"><g transform="translate(328.651293, 33.348137)"><g><path d="M 16.03125 -11.90625 C 16.03125 -10.789062 15.773438 -9.789062 15.265625 -8.90625 C 14.753906 -8.019531 14.019531 -7.335938 13.0625 -6.859375 C 12.113281 -6.378906 10.984375 -6.140625 9.671875 -6.140625 L 5.34375 -6.140625 L 5.34375 0 L 1.6875 0 L 1.6875 -17.421875 L 9.515625 -17.421875 C 11.609375 -17.421875 13.21875 -16.941406 14.34375 -15.984375 C 15.46875 -15.023438 16.03125 -13.664062 16.03125 -11.90625 Z M 12.359375 -11.84375 C 12.359375 -13.675781 11.273438 -14.59375 9.109375 -14.59375 L 5.34375 -14.59375 L 5.34375 -8.9375 L 9.21875 -8.9375 C 10.21875 -8.9375 10.988281 -9.1875 11.53125 -9.6875 C 12.082031 -10.1875 12.359375 -10.90625 12.359375 -11.84375 Z M 12.359375 -11.84375 "/></g></g></g><g fill="#d9d9d9" fill-opacity="1"><g transform="translate(347.320056, 33.348137)"><g><path d="M 14.015625 0 L 12.46875 -4.453125 L 5.828125 -4.453125 L 4.28125 0 L 0.625 0 L 6.984375 -17.421875 L 11.296875 -17.421875 L 17.625 0 Z M 9.140625 -14.734375 L 9.0625 -14.46875 C 8.976562 -14.175781 8.878906 -13.835938 8.765625 -13.453125 C 8.648438 -13.078125 7.941406 -10.992188 6.640625 -7.203125 L 11.65625 -7.203125 L 9.9375 -12.203125 Z M 9.140625 -14.734375 "/></g></g></g><g fill="#d9d9d9" fill-opacity="1"><g transform="translate(16.381345, 68.482201)"><g><path d="M 10.34375 0 L 9.203125 -3.28125 L 4.296875 -3.28125 L 3.15625 0 L 0.46875 0 L 5.15625 -12.859375 L 8.328125 -12.859375 L 13 0 Z M 6.75 -10.875 L 6.6875 -10.671875 C 6.625 -10.453125 6.550781 -10.203125 6.46875 -9.921875 C 6.382812 -9.648438 5.863281 -8.113281 4.90625 -5.3125 L 8.59375 -5.3125 L 7.328125 -9 L 6.9375 -10.25 Z M 6.75 -10.875 "/></g></g></g><g fill="#d9d9d9" fill-opacity="1"><g transform="translate(31.190593, 68.482201)"><g><path d="M 9.078125 0 L 3.46875 -9.90625 C 3.582031 -8.9375 3.640625 -8.160156 3.640625 -7.578125 L 3.640625 0 L 1.25 0 L 1.25 -12.859375 L 4.328125 -12.859375 L 10.015625 -2.875 C 9.898438 -3.789062 9.84375 -4.628906 9.84375 -5.390625 L 9.84375 -12.859375 L 12.234375 -12.859375 L 12.234375 0 Z M 9.078125 0 "/></g></g></g><g fill="#d9d9d9" fill-opacity="1"><g transform="translate(52.502528, 68.482201)"><g><path d="M 10.34375 0 L 9.203125 -3.28125 L 4.296875 -3.28125 L 3.15625 0 L 0.46875 0 L 5.15625 -12.859375 L 8.328125 -12.859375 L 13 0 Z M 6.75 -10.875 L 6.6875 -10.671875 C 6.625 -10.453125 6.550781 -10.203125 6.46875 -9.921875 C 6.382812 -9.648438 5.863281 -8.113281 4.90625 -5.3125 L 8.59375 -5.3125 L 7.328125 -9 L 6.9375 -10.25 Z M 6.75 -10.875 "/></g></g></g><g fill="#d9d9d9" fill-opacity="1"><g transform="translate(67.311776, 68.482201)"><g><path d="M 7.25 -1.9375 C 8.875 -1.9375 10.003906 -2.75 10.640625 -4.375 L 12.984375 -3.5 C 12.484375 -2.257812 11.742188 -1.332031 10.765625 -0.71875 C 9.785156 -0.113281 8.613281 0.1875 7.25 0.1875 C 5.1875 0.1875 3.585938 -0.394531 2.453125 -1.5625 C 1.328125 -2.738281 0.765625 -4.378906 0.765625 -6.484375 C 0.765625 -8.597656 1.304688 -10.21875 2.390625 -11.34375 C 3.484375 -12.476562 5.066406 -13.046875 7.140625 -13.046875 C 8.648438 -13.046875 9.878906 -12.742188 10.828125 -12.140625 C 11.773438 -11.535156 12.4375 -10.644531 12.8125 -9.46875 L 10.453125 -8.828125 C 10.242188 -9.472656 9.847656 -9.984375 9.265625 -10.359375 C 8.679688 -10.742188 7.988281 -10.9375 7.1875 -10.9375 C 5.96875 -10.9375 5.039062 -10.554688 4.40625 -9.796875 C 3.78125 -9.046875 3.46875 -7.941406 3.46875 -6.484375 C 3.46875 -5.003906 3.789062 -3.875 4.4375 -3.09375 C 5.09375 -2.320312 6.03125 -1.9375 7.25 -1.9375 Z M 7.25 -1.9375 "/></g></g></g><g fill="#d9d9d9" fill-opacity="1"><g transform="translate(82.121024, 68.482201)"><g><path d="M 7.25 -1.9375 C 8.875 -1.9375 10.003906 -2.75 10.640625 -4.375 L 12.984375 -3.5 C 12.484375 -2.257812 11.742188 -1.332031 10.765625 -0.71875 C 9.785156 -0.113281 8.613281 0.1875 7.25 0.1875 C 5.1875 0.1875 3.585938 -0.394531 2.453125 -1.5625 C 1.328125 -2.738281 0.765625 -4.378906 0.765625 -6.484375 C 0.765625 -8.597656 1.304688 -10.21875 2.390625 -11.34375 C 3.484375 -12.476562 5.066406 -13.046875 7.140625 -13.046875 C 8.648438 -13.046875 9.878906 -12.742188 10.828125 -12.140625 C 11.773438 -11.535156 12.4375 -10.644531 12.8125 -9.46875 L 10.453125 -8.828125 C 10.242188 -9.472656 9.847656 -9.984375 9.265625 -10.359375 C 8.679688 -10.742188 7.988281 -10.9375 7.1875 -10.9375 C 5.96875 -10.9375 5.039062 -10.554688 4.40625 -9.796875 C 3.78125 -9.046875 3.46875 -7.941406 3.46875 -6.484375 C 3.46875 -5.003906 3.789062 -3.875 4.4375 -3.09375 C 5.09375 -2.320312 6.03125 -1.9375 7.25 -1.9375 Z M 7.25 -1.9375 "/></g></g></g><g fill="#d9d9d9" fill-opacity="1"><g transform="translate(96.930273, 68.482201)"><g><path d="M 13.75 -6.484375 C 13.75 -5.148438 13.484375 -3.972656 12.953125 -2.953125 C 12.421875 -1.941406 11.660156 -1.164062 10.671875 -0.625 C 9.691406 -0.0820312 8.546875 0.1875 7.234375 0.1875 C 5.210938 0.1875 3.628906 -0.40625 2.484375 -1.59375 C 1.335938 -2.789062 0.765625 -4.421875 0.765625 -6.484375 C 0.765625 -8.546875 1.335938 -10.15625 2.484375 -11.3125 C 3.628906 -12.46875 5.21875 -13.046875 7.25 -13.046875 C 9.289062 -13.046875 10.882812 -12.460938 12.03125 -11.296875 C 13.175781 -10.128906 13.75 -8.523438 13.75 -6.484375 Z M 11 -6.484375 C 11 -7.867188 10.671875 -8.957031 10.015625 -9.75 C 9.359375 -10.539062 8.4375 -10.9375 7.25 -10.9375 C 6.050781 -10.9375 5.117188 -10.546875 4.453125 -9.765625 C 3.796875 -8.984375 3.46875 -7.890625 3.46875 -6.484375 C 3.46875 -5.078125 3.804688 -3.96875 4.484375 -3.15625 C 5.160156 -2.34375 6.078125 -1.9375 7.234375 -1.9375 C 8.441406 -1.9375 9.367188 -2.332031 10.015625 -3.125 C 10.671875 -3.914062 11 -5.035156 11 -6.484375 Z M 11 -6.484375 "/></g></g></g><g fill="#d9d9d9" fill-opacity="1"><g transform="translate(112.780123, 68.482201)"><g><path d="M 6.59375 0.1875 C 4.820312 0.1875 3.46875 -0.242188 2.53125 -1.109375 C 1.59375 -1.972656 1.125 -3.207031 1.125 -4.8125 L 1.125 -12.859375 L 3.8125 -12.859375 L 3.8125 -5.03125 C 3.8125 -4.007812 4.050781 -3.234375 4.53125 -2.703125 C 5.019531 -2.179688 5.734375 -1.921875 6.671875 -1.921875 C 7.628906 -1.921875 8.363281 -2.195312 8.875 -2.75 C 9.394531 -3.300781 9.65625 -4.09375 9.65625 -5.125 L 9.65625 -12.859375 L 12.359375 -12.859375 L 12.359375 -4.953125 C 12.359375 -3.328125 11.851562 -2.0625 10.84375 -1.15625 C 9.832031 -0.257812 8.414062 0.1875 6.59375 0.1875 Z M 6.59375 0.1875 "/></g></g></g><g fill="#d9d9d9" fill-opacity="1"><g transform="translate(127.589372, 68.482201)"><g><path d="M 9.078125 0 L 3.46875 -9.90625 C 3.582031 -8.9375 3.640625 -8.160156 3.640625 -7.578125 L 3.640625 0 L 1.25 0 L 1.25 -12.859375 L 4.328125 -12.859375 L 10.015625 -2.875 C 9.898438 -3.789062 9.84375 -4.628906 9.84375 -5.390625 L 9.84375 -12.859375 L 12.234375 -12.859375 L 12.234375 0 Z M 9.078125 0 "/></g></g></g><g fill="#d9d9d9" fill-opacity="1"><g transform="translate(142.39862, 68.482201)"><g><path d="M 7.046875 -10.78125 L 7.046875 0 L 4.359375 0 L 4.359375 -10.78125 L 0.203125 -10.78125 L 0.203125 -12.859375 L 11.21875 -12.859375 L 11.21875 -10.78125 Z M 7.046875 -10.78125 "/></g></g></g><g fill="#d9d9d9" fill-opacity="1"><g transform="translate(155.126664, 68.482201)"><g><path d="M 10.34375 0 L 9.203125 -3.28125 L 4.296875 -3.28125 L 3.15625 0 L 0.46875 0 L 5.15625 -12.859375 L 8.328125 -12.859375 L 13 0 Z M 6.75 -10.875 L 6.6875 -10.671875 C 6.625 -10.453125 6.550781 -10.203125 6.46875 -9.921875 C 6.382812 -9.648438 5.863281 -8.113281 4.90625 -5.3125 L 8.59375 -5.3125 L 7.328125 -9 L 6.9375 -10.25 Z M 6.75 -10.875 "/></g></g></g><g fill="#d9d9d9" fill-opacity="1"><g transform="translate(169.935912, 68.482201)"><g><path d="M 9.078125 0 L 3.46875 -9.90625 C 3.582031 -8.9375 3.640625 -8.160156 3.640625 -7.578125 L 3.640625 0 L 1.25 0 L 1.25 -12.859375 L 4.328125 -12.859375 L 10.015625 -2.875 C 9.898438 -3.789062 9.84375 -4.628906 9.84375 -5.390625 L 9.84375 -12.859375 L 12.234375 -12.859375 L 12.234375 0 Z M 9.078125 0 "/></g></g></g><g fill="#d9d9d9" fill-opacity="1"><g transform="translate(184.745161, 68.482201)"><g><path d="M 7.25 -1.9375 C 8.875 -1.9375 10.003906 -2.75 10.640625 -4.375 L 12.984375 -3.5 C 12.484375 -2.257812 11.742188 -1.332031 10.765625 -0.71875 C 9.785156 -0.113281 8.613281 0.1875 7.25 0.1875 C 5.1875 0.1875 3.585938 -0.394531 2.453125 -1.5625 C 1.328125 -2.738281 0.765625 -4.378906 0.765625 -6.484375 C 0.765625 -8.597656 1.304688 -10.21875 2.390625 -11.34375 C 3.484375 -12.476562 5.066406 -13.046875 7.140625 -13.046875 C 8.648438 -13.046875 9.878906 -12.742188 10.828125 -12.140625 C 11.773438 -11.535156 12.4375 -10.644531 12.8125 -9.46875 L 10.453125 -8.828125 C 10.242188 -9.472656 9.847656 -9.984375 9.265625 -10.359375 C 8.679688 -10.742188 7.988281 -10.9375 7.1875 -10.9375 C 5.96875 -10.9375 5.039062 -10.554688 4.40625 -9.796875 C 3.78125 -9.046875 3.46875 -7.941406 3.46875 -6.484375 C 3.46875 -5.003906 3.789062 -3.875 4.4375 -3.09375 C 5.09375 -2.320312 6.03125 -1.9375 7.25 -1.9375 Z M 7.25 -1.9375 "/></g></g></g><g fill="#d9d9d9" fill-opacity="1"><g transform="translate(199.554409, 68.482201)"><g><path d="M 7.578125 -5.28125 L 7.578125 0 L 4.90625 0 L 4.90625 -5.28125 L 0.3125 -12.859375 L 3.140625 -12.859375 L 6.21875 -7.421875 L 9.34375 -12.859375 L 12.15625 -12.859375 Z M 7.578125 -5.28125 "/></g></g></g><g fill="#d9d9d9" fill-opacity="1"><g transform="translate(213.332173, 68.482201)"><g/></g></g><g fill="#d9d9d9" fill-opacity="1"><g transform="translate(219.834852, 68.482201)"><g><path d="M 7.25 -1.9375 C 8.875 -1.9375 10.003906 -2.75 10.640625 -4.375 L 12.984375 -3.5 C 12.484375 -2.257812 11.742188 -1.332031 10.765625 -0.71875 C 9.785156 -0.113281 8.613281 0.1875 7.25 0.1875 C 5.1875 0.1875 3.585938 -0.394531 2.453125 -1.5625 C 1.328125 -2.738281 0.765625 -4.378906 0.765625 -6.484375 C 0.765625 -8.597656 1.304688 -10.21875 2.390625 -11.34375 C 3.484375 -12.476562 5.066406 -13.046875 7.140625 -13.046875 C 8.648438 -13.046875 9.878906 -12.742188 10.828125 -12.140625 C 11.773438 -11.535156 12.4375 -10.644531 12.8125 -9.46875 L 10.453125 -8.828125 C 10.242188 -9.472656 9.847656 -9.984375 9.265625 -10.359375 C 8.679688 -10.742188 7.988281 -10.9375 7.1875 -10.9375 C 5.96875 -10.9375 5.039062 -10.554688 4.40625 -9.796875 C 3.78125 -9.046875 3.46875 -7.941406 3.46875 -6.484375 C 3.46875 -5.003906 3.789062 -3.875 4.4375 -3.09375 C 5.09375 -2.320312 6.03125 -1.9375 7.25 -1.9375 Z M 7.25 -1.9375 "/></g></g></g><g fill="#d9d9d9" fill-opacity="1"><g transform="translate(234.644101, 68.482201)"><g><path d="M 13.75 -6.484375 C 13.75 -5.148438 13.484375 -3.972656 12.953125 -2.953125 C 12.421875 -1.941406 11.660156 -1.164062 10.671875 -0.625 C 9.691406 -0.0820312 8.546875 0.1875 7.234375 0.1875 C 5.210938 0.1875 3.628906 -0.40625 2.484375 -1.59375 C 1.335938 -2.789062 0.765625 -4.421875 0.765625 -6.484375 C 0.765625 -8.546875 1.335938 -10.15625 2.484375 -11.3125 C 3.628906 -12.46875 5.21875 -13.046875 7.25 -13.046875 C 9.289062 -13.046875 10.882812 -12.460938 12.03125 -11.296875 C 13.175781 -10.128906 13.75 -8.523438 13.75 -6.484375 Z M 11 -6.484375 C 11 -7.867188 10.671875 -8.957031 10.015625 -9.75 C 9.359375 -10.539062 8.4375 -10.9375 7.25 -10.9375 C 6.050781 -10.9375 5.117188 -10.546875 4.453125 -9.765625 C 3.796875 -8.984375 3.46875 -7.890625 3.46875 -6.484375 C 3.46875 -5.078125 3.804688 -3.96875 4.484375 -3.15625 C 5.160156 -2.34375 6.078125 -1.9375 7.234375 -1.9375 C 8.441406 -1.9375 9.367188 -2.332031 10.015625 -3.125 C 10.671875 -3.914062 11 -5.035156 11 -6.484375 Z M 11 -6.484375 "/></g></g></g><g fill="#d9d9d9" fill-opacity="1"><g transform="translate(250.493944, 68.482201)"><g><path d="M 10.078125 0 L 7.09375 -4.875 L 3.9375 -4.875 L 3.9375 0 L 1.25 0 L 1.25 -12.859375 L 7.671875 -12.859375 C 9.203125 -12.859375 10.382812 -12.523438 11.21875 -11.859375 C 12.050781 -11.203125 12.46875 -10.257812 12.46875 -9.03125 C 12.46875 -8.125 12.210938 -7.34375 11.703125 -6.6875 C 11.191406 -6.039062 10.503906 -5.613281 9.640625 -5.40625 L 13.109375 0 Z M 9.765625 -8.921875 C 9.765625 -10.148438 8.972656 -10.765625 7.390625 -10.765625 L 3.9375 -10.765625 L 3.9375 -6.96875 L 7.46875 -6.96875 C 8.21875 -6.96875 8.785156 -7.140625 9.171875 -7.484375 C 9.566406 -7.828125 9.765625 -8.304688 9.765625 -8.921875 Z M 9.765625 -8.921875 "/></g></g></g><g fill="#d9d9d9" fill-opacity="1"><g transform="translate(265.303193, 68.482201)"><g><path d="M 11.828125 -8.78125 C 11.828125 -7.957031 11.632812 -7.21875 11.25 -6.5625 C 10.875 -5.914062 10.335938 -5.414062 9.640625 -5.0625 C 8.941406 -4.707031 8.109375 -4.53125 7.140625 -4.53125 L 3.9375 -4.53125 L 3.9375 0 L 1.25 0 L 1.25 -12.859375 L 7.03125 -12.859375 C 8.5625 -12.859375 9.742188 -12.503906 10.578125 -11.796875 C 11.410156 -11.085938 11.828125 -10.082031 11.828125 -8.78125 Z M 9.109375 -8.734375 C 9.109375 -10.085938 8.3125 -10.765625 6.71875 -10.765625 L 3.9375 -10.765625 L 3.9375 -6.59375 L 6.796875 -6.59375 C 7.535156 -6.59375 8.101562 -6.773438 8.5 -7.140625 C 8.90625 -7.515625 9.109375 -8.046875 9.109375 -8.734375 Z M 9.109375 -8.734375 "/></g></g></g><g fill="#d9d9d9" fill-opacity="1"><g transform="translate(279.080956, 68.482201)"><g><path d="M 13.75 -6.484375 C 13.75 -5.148438 13.484375 -3.972656 12.953125 -2.953125 C 12.421875 -1.941406 11.660156 -1.164062 10.671875 -0.625 C 9.691406 -0.0820312 8.546875 0.1875 7.234375 0.1875 C 5.210938 0.1875 3.628906 -0.40625 2.484375 -1.59375 C 1.335938 -2.789062 0.765625 -4.421875 0.765625 -6.484375 C 0.765625 -8.546875 1.335938 -10.15625 2.484375 -11.3125 C 3.628906 -12.46875 5.21875 -13.046875 7.25 -13.046875 C 9.289062 -13.046875 10.882812 -12.460938 12.03125 -11.296875 C 13.175781 -10.128906 13.75 -8.523438 13.75 -6.484375 Z M 11 -6.484375 C 11 -7.867188 10.671875 -8.957031 10.015625 -9.75 C 9.359375 -10.539062 8.4375 -10.9375 7.25 -10.9375 C 6.050781 -10.9375 5.117188 -10.546875 4.453125 -9.765625 C 3.796875 -8.984375 3.46875 -7.890625 3.46875 -6.484375 C 3.46875 -5.078125 3.804688 -3.96875 4.484375 -3.15625 C 5.160156 -2.34375 6.078125 -1.9375 7.234375 -1.9375 C 8.441406 -1.9375 9.367188 -2.332031 10.015625 -3.125 C 10.671875 -3.914062 11 -5.035156 11 -6.484375 Z M 11 -6.484375 "/></g></g></g><g fill="#d9d9d9" fill-opacity="1"><g transform="translate(294.9308, 68.482201)"><g><path d="M 10.078125 0 L 7.09375 -4.875 L 3.9375 -4.875 L 3.9375 0 L 1.25 0 L 1.25 -12.859375 L 7.671875 -12.859375 C 9.203125 -12.859375 10.382812 -12.523438 11.21875 -11.859375 C 12.050781 -11.203125 12.46875 -10.257812 12.46875 -9.03125 C 12.46875 -8.125 12.210938 -7.34375 11.703125 -6.6875 C 11.191406 -6.039062 10.503906 -5.613281 9.640625 -5.40625 L 13.109375 0 Z M 9.765625 -8.921875 C 9.765625 -10.148438 8.972656 -10.765625 7.390625 -10.765625 L 3.9375 -10.765625 L 3.9375 -6.96875 L 7.46875 -6.96875 C 8.21875 -6.96875 8.785156 -7.140625 9.171875 -7.484375 C 9.566406 -7.828125 9.765625 -8.304688 9.765625 -8.921875 Z M 9.765625 -8.921875 "/></g></g></g><g fill="#d9d9d9" fill-opacity="1"><g transform="translate(309.740049, 68.482201)"><g><path d="M 10.34375 0 L 9.203125 -3.28125 L 4.296875 -3.28125 L 3.15625 0 L 0.46875 0 L 5.15625 -12.859375 L 8.328125 -12.859375 L 13 0 Z M 6.75 -10.875 L 6.6875 -10.671875 C 6.625 -10.453125 6.550781 -10.203125 6.46875 -9.921875 C 6.382812 -9.648438 5.863281 -8.113281 4.90625 -5.3125 L 8.59375 -5.3125 L 7.328125 -9 L 6.9375 -10.25 Z M 6.75 -10.875 "/></g></g></g><g fill="#d9d9d9" fill-opacity="1"><g transform="translate(324.549297, 68.482201)"><g><path d="M 7.046875 -10.78125 L 7.046875 0 L 4.359375 0 L 4.359375 -10.78125 L 0.203125 -10.78125 L 0.203125 -12.859375 L 11.21875 -12.859375 L 11.21875 -10.78125 Z M 7.046875 -10.78125 "/></g></g></g><g fill="#d9d9d9" fill-opacity="1"><g transform="translate(337.277327, 68.482201)"><g><path d="M 1.25 0 L 1.25 -12.859375 L 3.9375 -12.859375 L 3.9375 0 Z M 1.25 0 "/></g></g></g><g fill="#d9d9d9" fill-opacity="1"><g transform="translate(343.780006, 68.482201)"><g><path d="M 13.75 -6.484375 C 13.75 -5.148438 13.484375 -3.972656 12.953125 -2.953125 C 12.421875 -1.941406 11.660156 -1.164062 10.671875 -0.625 C 9.691406 -0.0820312 8.546875 0.1875 7.234375 0.1875 C 5.210938 0.1875 3.628906 -0.40625 2.484375 -1.59375 C 1.335938 -2.789062 0.765625 -4.421875 0.765625 -6.484375 C 0.765625 -8.546875 1.335938 -10.15625 2.484375 -11.3125 C 3.628906 -12.46875 5.21875 -13.046875 7.25 -13.046875 C 9.289062 -13.046875 10.882812 -12.460938 12.03125 -11.296875 C 13.175781 -10.128906 13.75 -8.523438 13.75 -6.484375 Z M 11 -6.484375 C 11 -7.867188 10.671875 -8.957031 10.015625 -9.75 C 9.359375 -10.539062 8.4375 -10.9375 7.25 -10.9375 C 6.050781 -10.9375 5.117188 -10.546875 4.453125 -9.765625 C 3.796875 -8.984375 3.46875 -7.890625 3.46875 -6.484375 C 3.46875 -5.078125 3.804688 -3.96875 4.484375 -3.15625 C 5.160156 -2.34375 6.078125 -1.9375 7.234375 -1.9375 C 8.441406 -1.9375 9.367188 -2.332031 10.015625 -3.125 C 10.671875 -3.914062 11 -5.035156 11 -6.484375 Z M 11 -6.484375 "/></g></g></g><g fill="#d9d9d9" fill-opacity="1"><g transform="translate(359.62985, 68.482201)"><g><path d="M 9.078125 0 L 3.46875 -9.90625 C 3.582031 -8.9375 3.640625 -8.160156 3.640625 -7.578125 L 3.640625 0 L 1.25 0 L 1.25 -12.859375 L 4.328125 -12.859375 L 10.015625 -2.875 C 9.898438 -3.789062 9.84375 -4.628906 9.84375 -5.390625 L 9.84375 -12.859375 L 12.234375 -12.859375 L 12.234375 0 Z M 9.078125 0 "/></g></g></g></svg>